custom-analysis
version=1
nRows=6
nColumns=98
inDegrees=no

This file contains tibia displacement and acting force.

Units are S.I. units (seconds, meters, Newtons, ...)
Angles are in degrees.

endheader
time	APT	SIT	knee_angle	aACL_R_force	pACL_R_force	aPCL_R_force	pPCL_R_force	aMCL_R_force	mMCL_R_force	pMCL_R_force	aLCL_R_force	mLCL_R_force	pLCL_R_force	aPCL_L_force	pPCL_L_force	aMCL_L_force	aLCL_L_force	aACL_R_length	pACL_R_length	aPCL_R_length	pPCL_R_length	aMCL_R_length	mMCL_R_length	pMCL_R_length	aLCL_R_length	mLCL_R_length	pLCL_R_length	aPCL_L_length	pPCL_L_length	aMCL_L_length	aLCL_L_length	aACL_R_strain	pACL_R_strain	aPCL_R_strain	pPCL_R_strain	aMCL_R_strain	mMCL_R_strain	pMCL_R_strain	aLCL_R_strain	mLCL_R_strain	pLCL_R_strain	aPCL_L_strain	pPCL_L_strain	aMCL_L_strain	aLCL_L_strain	femur_lat_meniscii_r.femur_lat_r.force.X	femur_lat_meniscii_r.femur_lat_r.force.Y	femur_lat_meniscii_r.femur_lat_r.force.Z	femur_lat_meniscii_r.femur_lat_r.torque.X	femur_lat_meniscii_r.femur_lat_r.torque.Y	femur_lat_meniscii_r.femur_lat_r.torque.Z	femur_lat_meniscii_r.meniscus_lat_r.force.X	femur_lat_meniscii_r.meniscus_lat_r.force.Y	femur_lat_meniscii_r.meniscus_lat_r.force.Z	femur_lat_meniscii_r.meniscus_lat_r.torque.X	femur_lat_meniscii_r.meniscus_lat_r.torque.Y	femur_lat_meniscii_r.meniscus_lat_r.torque.Z	femur_med_meniscii_r.femur_med_r.force.X	femur_med_meniscii_r.femur_med_r.force.Y	femur_med_meniscii_r.femur_med_r.force.Z	femur_med_meniscii_r.femur_med_r.torque.X	femur_med_meniscii_r.femur_med_r.torque.Y	femur_med_meniscii_r.femur_med_r.torque.Z	femur_med_meniscii_r.meniscus_med_r.force.X	femur_med_meniscii_r.meniscus_med_r.force.Y	femur_med_meniscii_r.meniscus_med_r.force.Z	femur_med_meniscii_r.meniscus_med_r.torque.X	femur_med_meniscii_r.meniscus_med_r.torque.Y	femur_med_meniscii_r.meniscus_med_r.torque.Z	femur_med_tibia_r.tibia_upper_r.force.X	femur_med_tibia_r.tibia_upper_r.force.Y	femur_med_tibia_r.tibia_upper_r.force.Z	femur_med_tibia_r.tibia_upper_r.torque.X	femur_med_tibia_r.tibia_upper_r.torque.Y	femur_med_tibia_r.tibia_upper_r.torque.Z	femur_med_tibia_r.femur_med_r.force.X	femur_med_tibia_r.femur_med_r.force.Y	femur_med_tibia_r.femur_med_r.force.Z	femur_med_tibia_r.femur_med_r.torque.X	femur_med_tibia_r.femur_med_r.torque.Y	femur_med_tibia_r.femur_med_r.torque.Z	femur_lat_tibia_r.tibia_upper_r.force.X	femur_lat_tibia_r.tibia_upper_r.force.Y	femur_lat_tibia_r.tibia_upper_r.force.Z	femur_lat_tibia_r.tibia_upper_r.torque.X	femur_lat_tibia_r.tibia_upper_r.torque.Y	femur_lat_tibia_r.tibia_upper_r.torque.Z	femur_lat_tibia_r.femur_lat_r.force.X	femur_lat_tibia_r.femur_lat_r.force.Y	femur_lat_tibia_r.femur_lat_r.force.Z	femur_lat_tibia_r.femur_lat_r.torque.X	femur_lat_tibia_r.femur_lat_r.torque.Y	femur_lat_tibia_r.femur_lat_r.torque.Z	femur_lat_meniscii_force_r	femur_med_meniscii_force_r	femur_lat_tibia_force_r	femur_med_tibia_force_r
      0.76157193	      0.00290534	     -0.00030618	     20.00008554	     50.76419572	     37.51669391	      0.00000000	      0.05805884	      0.00000000	     -0.04335622	      4.08101275	      0.53236432	      0.00000000	      0.00000000	      0.00000000	      0.00000000	      0.00000001	      0.00000000	      0.03355447	      0.02682913	      0.03058623	      0.02989301	      0.05695120	      0.05988481	      0.06010623	      0.05625938	      0.05366416	      0.05060735	      0.01525851	      0.01651186	      0.06550154	      0.04489616	      0.08221040	      0.07065129	     -0.01637121	      0.00017430	     -0.05124020	      0.00152711	      0.02346808	      0.00504092	     -0.04713257	     -0.03315355	      0.00000079	     -0.32847694	      0.00000060	     -0.00000086	     48.34407762	     75.79109505	     18.03245478	     -9.30401606	      1.17053509	     20.02591046	    -48.34407762	    -75.79109505	    -18.03245478	      2.50064820	     -1.37488852	     -0.92752823	     34.75923160	     44.13055053	     15.32436102	     -5.30711699	     -0.86605986	     14.46115267	    -34.75923160	    -44.13055053	    -15.32436102	     -0.50499477	      0.70189802	     -0.80517767	      0.00000000	      0.00000000	      0.00000000	      0.00000000	      0.00000000	      0.00000000	      0.00000000	      0.00000000	      0.00000000	      0.00000000	      0.00000000	      0.00000000	      0.00000000	      0.00000000	      0.00000000	      0.00000000	      0.00000000	      0.00000000	      0.00000000	      0.00000000	      0.00000000	      0.00000000	      0.00000000	      0.00000000	     91.68756380	     58.22839266	      0.00000000	      0.00000000
      0.76261400	      0.00290552	     -0.00030633	     20.00008554	     50.82575315	     37.58259361	      0.00000000	      0.05222333	      0.00000000	     -0.00368635	      4.12064221	      0.55805214	      0.00000000	      0.00000000	      0.00000000	      0.00000000	      0.00000001	      0.00000000	      0.03355475	      0.02682941	      0.03058631	      0.02989307	      0.05695116	      0.05988476	      0.06010619	      0.05625983	      0.05366463	      0.05060782	      0.01525851	      0.01651186	      0.06550154	      0.04489616	      0.08221923	      0.07066252	     -0.01636865	      0.00017628	     -0.05124100	      0.00152624	      0.02346743	      0.00504905	     -0.04712426	     -0.03314460	      0.00000079	     -0.32847694	      0.00000060	     -0.00000086	     48.35420834	     75.74335490	     17.99092258	     -9.28542571	      1.17055079	     20.03037341	    -48.35420834	    -75.74335490	    -17.99092258	      2.49788981	     -1.37460171	     -0.92843882	     34.78011373	     44.12105671	     15.30654309	     -5.29988096	     -0.86666431	     14.46996325	    -34.78011373	    -44.12105671	    -15.30654309	     -0.50542749	      0.70261143	     -0.80603707	      0.00000000	      0.00000000	      0.00000000	      0.00000000	      0.00000000	      0.00000000	      0.00000000	      0.00000000	      0.00000000	      0.00000000	      0.00000000	      0.00000000	      0.00000000	      0.00000000	      0.00000000	      0.00000000	      0.00000000	      0.00000000	      0.00000000	      0.00000000	      0.00000000	      0.00000000	      0.00000000	      0.00000000	     91.64528668	     58.22898091	      0.00000000	      0.00000000
      0.76313504	      0.00290564	     -0.00030643	     20.00008554	     50.84916789	     37.60765115	      0.00000000	      0.04291144	      0.00000000	      0.00608218	      4.13059081	      0.55926576	      0.00000000	      0.00000000	      0.00000000	      0.00000000	      0.00000001	      0.00000000	      0.03355493	      0.02682960	      0.03058635	      0.02989309	      0.05695115	      0.05988475	      0.06010619	      0.05626007	      0.05366487	      0.05060806	      0.01525851	      0.01651186	      0.06550154	      0.04489616	      0.08222500	      0.07066987	     -0.01636758	      0.00017709	     -0.05124113	      0.00152607	      0.02346737	      0.00505322	     -0.04711999	     -0.03314001	      0.00000079	     -0.32847694	      0.00000060	     -0.00000086	     48.35746392	     75.72345529	     17.97526723	     -9.27837118	      1.17054266	     20.03182691	    -48.35746392	    -75.72345529	    -17.97526723	      2.49679975	     -1.37447960	     -0.92877815	     34.78823110	     44.11702538	     15.29938528	     -5.29698315	     -0.86689063	     14.47337919	    -34.78823110	    -44.11702538	    -15.29938528	     -0.50559272	      0.70288096	     -0.80636150	      0.00000000	      0.00000000	      0.00000000	      0.00000000	      0.00000000	      0.00000000	      0.00000000	      0.00000000	      0.00000000	      0.00000000	      0.00000000	      0.00000000	      0.00000000	      0.00000000	      0.00000000	      0.00000000	      0.00000000	      0.00000000	      0.00000000	      0.00000000	      0.00000000	      0.00000000	      0.00000000	      0.00000000	     91.62748621	     58.22889438	      0.00000000	      0.00000000
      0.76574024	      0.00290613	     -0.00030601	     20.00008554	     50.77964818	     37.53139326	      0.00000000	      0.09442024	      0.00000000	     -0.01387073	      4.10638764	      0.55505155	      0.00000000	      0.00000000	      0.00000000	      0.00000000	      0.00000001	      0.00000000	      0.03355498	      0.02682966	      0.03058586	      0.02989255	      0.05695028	      0.05988387	      0.06010535	      0.05626039	      0.05366523	      0.05060842	      0.01525851	      0.01651186	      0.06550154	      0.04489616	      0.08222669	      0.07067262	     -0.01638315	      0.00015891	     -0.05125562	      0.00151129	      0.02345300	      0.00505910	     -0.04711361	     -0.03313309	      0.00000079	     -0.32847694	      0.00000060	     -0.00000086	     48.32462972	     75.74254613	     18.05488460	     -9.31228588	      1.17014557	     20.01794894	    -48.32462972	    -75.74254613	    -18.05488460	      2.50014222	     -1.37458245	     -0.92733178	     34.85043725	     44.23730835	     15.37379590	     -5.32524741	     -0.86819457	     14.49910846	    -34.85043725	    -44.23730835	    -15.37379590	     -0.50572559	      0.70357019	     -0.80733711	      0.00000000	      0.00000000	      0.00000000	      0.00000000	      0.00000000	      0.00000000	      0.00000000	      0.00000000	      0.00000000	      0.00000000	      0.00000000	      0.00000000	      0.00000000	      0.00000000	      0.00000000	      0.00000000	      0.00000000	      0.00000000	      0.00000000	      0.00000000	      0.00000000	      0.00000000	      0.00000000	      0.00000000	     91.64159531	     58.37675931	      0.00000000	      0.00000000
      0.76691285	      0.00290633	     -0.00030614	     20.00008554	     50.81721365	     37.57310567	      0.00000000	      0.04471883	      0.00000000	     -0.02025485	      4.09945506	      0.52684306	      0.00000000	      0.00000000	      0.00000000	      0.00000000	      0.00000001	      0.00000000	      0.03355522	      0.02682991	      0.03058595	      0.02989261	      0.05695021	      0.05988379	      0.06010529	      0.05626087	      0.05366572	      0.05060892	      0.01525851	      0.01651186	      0.06550154	      0.04489616	      0.08223445	      0.07068228	     -0.01638045	      0.00016099	     -0.05125674	      0.00151007	      0.02345203	      0.00506766	     -0.04710483	     -0.03312362	      0.00000079	     -0.32847694	      0.00000060	     -0.00000086	     48.33274899	     75.71397578	     18.01110912	     -9.29317920	      1.17009894	     20.02147727	    -48.33274899	    -75.71397578	    -18.01110912	      2.49774727	     -1.37420761	     -0.92793991	     34.87422396	     44.24495745	     15.35701288	     -5.31799871	     -0.86888287	     14.50910245	    -34.87422396	    -44.24495745	    -15.35701288	     -0.50654783	      0.70436012	     -0.80814091	      0.00000000	      0.00000000	      0.00000000	      0.00000000	      0.00000000	      0.00000000	      0.00000000	      0.00000000	      0.00000000	      0.00000000	      0.00000000	      0.00000000	      0.00000000	      0.00000000	      0.00000000	      0.00000000	      0.00000000	      0.00000000	      0.00000000	      0.00000000	      0.00000000	      0.00000000	      0.00000000	      0.00000000	     91.61364967	     58.39234197	      0.00000000	      0.00000000
      0.76885690	      0.00290658	     -0.00030565	     20.00008554	     50.69847923	     37.44763536	      0.00000000	      0.01029358	      0.00000000	     -0.12902864	      3.98600342	      0.42399337	      0.00000000	      0.00000000	      0.00000000	      0.00000000	      0.00000001	      0.00000000	      0.03355500	      0.02682970	      0.03058555	      0.02989217	      0.05694943	      0.05988300	      0.06010453	      0.05626100	      0.05366587	      0.05060907	      0.01525851	      0.01651186	      0.06550154	      0.04489616	      0.08222750	      0.07067394	     -0.01639311	      0.00014615	     -0.05126975	      0.00149682	      0.02343902	      0.00506993	     -0.04710222	     -0.03312073	      0.00000079	     -0.32847694	      0.00000060	     -0.00000086	     48.29987557	     75.77816633	     18.08258250	     -9.32468937	      1.16966951	     20.00737109	    -48.29987557	    -75.77816633	    -18.08258250	      2.50188167	     -1.37421634	     -0.92597347	     34.92384103	     44.37532268	     15.42454723	     -5.34307241	     -0.86993083	     14.52956147	    -34.92384103	    -44.37532268	    -15.42454723	     -0.50721512	      0.70486473	     -0.80861589	      0.00000000	      0.00000000	      0.00000000	      0.00000000	      0.00000000	      0.00000000	      0.00000000	      0.00000000	      0.00000000	      0.00000000	      0.00000000	      0.00000000	      0.00000000	      0.00000000	      0.00000000	      0.00000000	      0.00000000	      0.00000000	      0.00000000	      0.00000000	      0.00000000	      0.00000000	      0.00000000	      0.00000000	     91.66345107	     58.53853938	      0.00000000	      0.00000000
